<svg width="160" height="160" viewBox="0 0 160 160" fill="none" xmlns="http://www.w3.org/2000/svg" role="img" aria-labelledby="title desc">
  <title id="title">Skill Kit mark</title>
  <desc id="desc">A geometric mark representing locked Skill snapshots and activation links.</desc>
  <rect x="18" y="18" width="124" height="124" rx="24" fill="#101820"/>
  <path d="M49 53C49 45.268 55.268 39 63 39H97C104.732 39 111 45.268 111 53V62H98V54C98 51.791 96.209 50 94 50H66C63.791 50 62 51.791 62 54V62H49V53Z" fill="#F2C94C"/>
  <rect x="42" y="61" width="76" height="62" rx="12" fill="#F7F7F2"/>
  <path d="M64 82H96" stroke="#101820" stroke-width="8" stroke-linecap="round"/>
  <path d="M64 101H86" stroke="#2F80ED" stroke-width="8" stroke-linecap="round"/>
  <circle cx="105" cy="101" r="6" fill="#27AE60"/>
  <path d="M39 124L25 138" stroke="#2F80ED" stroke-width="8" stroke-linecap="round"/>
  <path d="M121 124L135 138" stroke="#2F80ED" stroke-width="8" stroke-linecap="round"/>
</svg>
